<?xml version="1.0" standalone="no"?>
<!DOCTYPE svg PUBLIC "-//W3C//DTD SVG 20010904//EN"
 "http://www.w3.org/TR/2001/REC-SVG-20010904/DTD/svg10.dtd">
<svg version="1.0" xmlns="http://www.w3.org/2000/svg"
 width="896.000000pt" height="896.000000pt" viewBox="0 0 896.000000 896.000000"
 preserveAspectRatio="xMidYMid meet">
<metadata>
Created by potrace 1.11, written by Peter Selinger 2001-2013
</metadata>
<g transform="translate(0.000000,896.000000) scale(0.100000,-0.100000)"
fill="#000000" stroke="none">
<path d="M3176 8454 c-148 -29 -305 -96 -424 -181 -72 -51 -182 -159 -229
-225 l-32 -44 45 -12 c24 -7 44 -16 44 -22 0 -5 7 -10 15 -10 18 0 97 -98 89
-111 -3 -5 -1 -9 5 -9 10 0 27 -38 23 -52 -1 -5 2 -8 7 -8 4 0 19 -33 32 -72
20 -61 24 -93 24 -198 0 -110 -3 -130 -22 -167 -29 -53 -73 -84 -128 -91 -61
-6 -89 3 -136 45 -53 48 -75 93 -118 242 -49 169 -61 170 -81 11 -19 -153 -7
-330 36 -520 15 -63 27 -122 28 -130 0 -8 4 -17 7 -20 7 -7 72 -192 72 -207 0
-7 4 -13 9 -13 4 0 8 -5 8 -10 0 -15 54 -129 113 -240 28 -52 50 -97 48 -99
-1 -2 2 -7 7 -10 5 -3 31 -40 57 -81 l48 -74 -26 -111 c-46 -196 -63 -397 -48
-570 5 -60 9 -111 8 -112 -2 -1 -54 16 -117 37 -63 22 -156 47 -207 58 -92 18
-92 18 -129 67 -55 75 -135 154 -174 175 -30 15 -42 34 -82 124 -55 122 -105
280 -142 451 -15 66 -29 130 -31 142 -4 18 2 26 33 42 112 57 205 266 218 491
3 52 13 117 21 143 24 75 0 167 -42 167 -7 0 -24 17 -38 38 -40 57 -100 111
-133 121 -43 12 -88 -4 -124 -45 -31 -36 -31 -36 -76 -24 -103 29 -250 -36
-301 -134 -21 -40 -32 -131 -24 -193 4 -31 3 -59 -3 -70 -6 -10 -12 -27 -13
-37 -2 -11 -8 -25 -13 -31 -5 -7 -7 -15 -3 -18 3 -4 0 -13 -7 -22 -7 -8 -10
-15 -7 -15 3 0 1 -15 -4 -32 -6 -18 -12 -40 -13 -48 -2 -9 -28 -21 -67 -30
l-64 -16 3 -55 c4 -64 10 -124 12 -124 3 0 11 -55 13 -85 1 -14 5 -27 9 -30 4
-3 9 -17 11 -30 2 -14 9 -38 15 -53 7 -16 12 -33 12 -39 0 -15 33 -52 50 -57
8 -2 43 -6 78 -9 61 -4 62 -5 62 -34 0 -17 7 -76 15 -132 8 -55 17 -117 19
-136 13 -99 96 -459 140 -604 8 -27 13 -53 10 -57 -2 -4 -1 -9 3 -11 18 -8 63
-175 60 -226 -1 -28 2 -52 7 -52 4 0 6 -9 3 -20 -3 -11 -2 -20 3 -20 9 0 66
-149 64 -167 -1 -7 3 -10 9 -6 6 4 8 0 4 -10 -3 -10 -2 -17 4 -17 6 0 7 -4 4
-10 -3 -5 -1 -10 5 -10 6 0 9 -4 6 -9 -4 -5 -2 -11 2 -13 5 -1 26 -41 47 -88
22 -47 44 -88 50 -92 5 -4 6 -8 1 -8 -6 0 4 -12 22 -26 17 -15 29 -31 25 -37
-3 -5 -1 -7 5 -3 6 3 16 0 24 -7 15 -15 21 -17 58 -21 8 0 28 6 45 15 l30 16
57 -95 c32 -52 58 -99 58 -103 0 -5 4 -9 8 -9 9 0 49 -64 42 -67 -3 0 7 -13
23 -27 15 -14 27 -30 27 -36 0 -5 4 -10 8 -10 11 0 88 -102 85 -112 -2 -4 3
-8 10 -9 6 0 32 -24 56 -52 69 -82 168 -183 266 -271 50 -44 95 -85 100 -91
14 -15 17 -35 5 -35 -5 0 -9 -3 -8 -8 1 -4 -24 -59 -56 -122 -64 -126 -144
-326 -153 -380 -3 -19 -9 -43 -13 -54 -4 -11 -3 -36 2 -54 5 -19 7 -36 4 -39
-2 -3 -1 -10 5 -17 5 -6 29 -42 54 -79 43 -67 44 -70 31 -102 -8 -18 -12 -36
-9 -39 3 -3 1 -11 -4 -18 -6 -7 -9 -53 -8 -103 2 -102 25 -168 75 -220 l30
-31 -111 -64 c-61 -35 -120 -71 -130 -79 -12 -10 -37 -78 -69 -184 l-49 -168
-75 -81 c-69 -75 -81 -83 -161 -114 -199 -77 -351 -175 -406 -262 -84 -132
-58 -231 96 -362 46 -39 220 -135 238 -132 4 1 7 -2 7 -8 0 -6 3 -9 8 -9 4 1
10 0 15 -1 4 -1 10 -3 15 -4 42 -11 92 -31 92 -36 0 -4 12 -7 27 -7 15 0 29
-6 31 -12 2 -6 7 -9 11 -7 4 3 52 -9 107 -25 54 -16 114 -32 133 -35 18 -2 41
-8 50 -13 9 -5 22 -6 29 -4 6 3 12 -1 12 -7 0 -7 6 -10 13 -7 8 3 45 -1 83
-10 38 -8 80 -16 94 -18 14 -2 90 -13 170 -24 80 -12 165 -24 190 -28 25 -3
51 -5 59 -4 7 1 20 -1 30 -4 9 -4 41 -8 71 -10 30 -2 62 -4 70 -5 166 -17
1049 -30 1091 -16 8 3 77 8 154 12 154 7 184 9 295 23 41 5 78 7 82 4 5 -2 23
0 41 6 17 6 106 22 197 36 91 14 226 39 300 56 74 17 142 32 150 34 8 1 22 5
30 8 31 11 96 31 110 32 8 1 24 6 35 10 11 4 61 24 110 43 447 173 572 389
344 596 -76 68 -253 160 -419 217 -128 43 -156 57 -131 66 7 3 22 14 33 25 28
28 16 65 -38 113 -37 33 -47 51 -63 107 -42 153 -164 235 -365 246 -95 5 -103
7 -160 44 -75 49 -200 109 -285 138 -52 17 -80 36 -153 103 -49 45 -98 86
-108 91 -11 5 -20 16 -20 25 0 23 61 111 145 211 86 101 105 135 105 190 0 85
-67 230 -131 284 -27 23 -76 43 -166 66 l-42 11 6 112 c4 91 3 119 -11 151 -9
21 -16 40 -16 42 0 2 70 4 154 4 161 0 324 17 485 50 51 11 97 17 102 14 5 -3
9 0 9 5 0 6 6 11 14 11 32 0 236 73 331 119 214 102 388 239 564 445 l33 39
132 -53 c231 -92 683 -321 694 -351 2 -5 9 -9 15 -9 16 0 227 -141 227 -151 0
-5 5 -9 11 -9 12 0 84 -54 110 -82 9 -10 21 -18 26 -18 6 0 18 -9 28 -20 23
-26 55 -26 55 -1 0 32 -192 179 -425 326 -60 39 -220 125 -355 194 -135 68
-236 121 -225 117 77 -22 398 -54 486 -48 22 2 43 -3 52 -12 8 -8 17 -13 19
-11 7 8 256 -119 366 -187 174 -106 170 -104 183 -91 6 6 9 18 6 26 -7 20
-177 123 -347 211 -118 61 -140 76 -120 80 27 5 183 28 215 31 11 1 27 4 35 8
26 10 175 52 185 52 6 0 12 2 15 5 3 3 35 19 71 37 37 17 83 46 102 63 50 44
89 113 85 153 l-3 32 -165 6 c-197 8 -322 36 -520 118 -117 48 -332 160 -344
180 -3 4 13 55 35 112 119 310 179 634 165 896 -6 125 -28 275 -47 328 -6 17
-15 91 -19 165 -14 214 -45 283 -152 329 -29 13 -60 26 -68 30 -24 12 -145
176 -224 306 -41 66 -127 215 -191 330 -65 116 -144 251 -176 300 -146 226
-204 235 -529 84 -73 -34 -152 -64 -177 -67 -43 -5 -46 -3 -96 50 -30 31 -75
97 -107 157 -65 121 -107 171 -144 171 -37 0 -145 -43 -255 -101 l-95 -49 -40
38 c-273 258 -641 431 -1035 486 -136 19 -389 19 -485 0z m-23 -2479 c50 -223
44 -494 -13 -612 -17 -34 -50 -83 -73 -109 l-42 -46 -39 25 c-21 15 -53 32
-71 38 -33 12 -45 32 -45 77 0 22 1 22 25 6 32 -21 93 -14 134 15 42 30 88
105 111 179 29 92 26 128 -10 162 -34 32 -37 57 -13 107 l17 36 -33 29 c-29
26 -40 29 -81 26 l-48 -3 28 36 c45 55 121 122 130 113 4 -5 15 -41 23 -79z
m1321 -245 c50 -98 69 -188 63 -306 -2 -54 -7 -117 -11 -139 -15 -94 -83 -261
-129 -318 l-22 -29 -85 18 c-82 16 -193 16 -277 -2 -35 -7 -35 -6 -47 106 l-4
45 15 -31 c17 -35 68 -64 114 -64 108 0 238 168 264 341 6 44 6 45 -29 61 -64
31 -72 132 -13 173 l21 15 -20 27 c-29 39 -62 54 -111 51 l-42 -3 27 28 c15
16 67 56 117 89 l89 60 24 -29 c13 -15 38 -57 56 -93z m-2104 -336 c41 -9 80
-19 85 -23 6 -3 17 -6 25 -8 8 -1 55 -17 103 -35 84 -31 88 -34 82 -58 -4 -14
-8 -27 -10 -29 -2 -2 -39 4 -82 12 -43 9 -119 21 -169 28 l-92 11 -6 40 c-4
22 -14 50 -22 64 -13 19 -13 23 -3 20 8 -2 48 -12 89 -22z m145 -175 c60 -11
112 -22 116 -24 3 -3 0 -33 -8 -67 -18 -77 -12 -279 10 -350 8 -27 12 -46 8
-43 -21 12 -262 385 -320 494 -11 20 -10 20 36 15 27 -3 97 -14 158 -25z"/>
</g>
</svg>
